<?xml version="1.0" encoding="UTF-8"?>
<!DOCTYPE svg PUBLIC "-//W3C//DTD SVG 1.0//EN" "http://www.w3.org/TR/2001/REC-SVG-20010904/DTD/svg10.dtd">
<!-- Creator: CorelDRAW X7 -->
<svg xmlns="http://www.w3.org/2000/svg" xml:space="preserve" width="10mm" height="9.70954mm" version="1.0" shape-rendering="geometricPrecision" text-rendering="geometricPrecision" image-rendering="optimizeQuality" fill-rule="evenodd" clip-rule="evenodd"
viewBox="0 0 253 245"
 xmlns:xlink="http://www.w3.org/1999/xlink">
 <g id="Ebene_x0020_1">
  <metadata id="CorelCorpID_0Corel-Layer"/>
  <path fill="#2B2A29" fill-rule="nonzero" d="M169 153l0 -153c25,9 46,25 61,46 15,22 23,46 23,73 0,35 -13,65 -37,89 -25,25 -55,37 -90,37 -35,0 -64,-12 -89,-37 -25,-24 -37,-54 -37,-89 0,-27 8,-51 23,-73 15,-21 35,-37 61,-46l0 153 -42 0 84 84 85 -84 -42 0z"/>
 </g>
</svg>
