<?xml version="1.0" encoding="UTF-8"?>
<!DOCTYPE svg PUBLIC "-//W3C//DTD SVG 1.0//EN" "http://www.w3.org/TR/2001/REC-SVG-20010904/DTD/svg10.dtd">
<!-- Creator: CorelDRAW X7 -->
<svg xmlns="http://www.w3.org/2000/svg" xml:space="preserve" width="10mm" height="10.2991mm" version="1.0" shape-rendering="geometricPrecision" text-rendering="geometricPrecision" image-rendering="optimizeQuality" fill-rule="evenodd" clip-rule="evenodd"
viewBox="0 0 661 681"
 xmlns:xlink="http://www.w3.org/1999/xlink">
 <g id="Ebene_x0020_1">
  <metadata id="CorelCorpID_0Corel-Layer"/>
  <path fill="#2B2A29" fill-rule="nonzero" d="M412 455l-412 0c25,69 67,124 125,165 58,41 123,61 196,61 94,0 174,-33 241,-100 66,-66 99,-146 99,-241 0,-94 -33,-174 -99,-240 -67,-67 -147,-100 -241,-100 -73,0 -138,20 -196,61 -58,41 -100,96 -125,165l412 0 0 -113 227 227 -227 228 0 -113z"/>
 </g>
</svg>
